<svg id="Capa_1" data-name="Capa 1" xmlns="http://www.w3.org/2000/svg" width="48" height="48" viewBox="0 0 48 48"><defs><style>.cls-1{fill:#5864ff;}.cls-2{fill:#fff;}</style></defs><rect class="cls-1" width="48" height="48"/><path class="cls-2" d="M9.7,27c0-1.53,0-4.66,0-4.66s-1.16,0-1.9-.07c-1.31-.09-1.6-2-.54-3,4.27-4,8.54-8,12.88-11.85,2.05-1.85,5.84-1.58,8,.08.66.5,2.16,2,2.16,2V8.46a.62.62,0,0,1,.6-.61l5.37-.17a.62.62,0,0,1,.64.59l.32,7.39s2.21,2.09,3.34,3.38,1.29,3.6-1.15,3.61H38.08S38,24.57,38,25C39.17,47.19,9.72,46.87,9.7,27ZM24.06,37.43c8.5-.19,8.26-9.16,1.71-11.68C17.49,23.52,13,37.67,24.06,37.43Zm3.49-18.91c-3.08-.14-4.13,5.28-.65,5.48C30.13,24.34,31.09,18.63,27.55,18.52Zm-4.17,3c.2-3.42-5.07-4.16-5.11-.59C18.07,24.37,23.45,25.34,23.38,21.56Zm10.46,3.37c-.16-3.36-4.17-2.75-4.4.21C29.49,28.43,33.65,27.69,33.84,24.93Zm-15.16.32c-.07-2.84-4-3.84-4.28-.54C14.47,27.6,18.46,28.51,18.68,25.25Z"/></svg>