<?xml version="1.0" encoding="utf-8"?>
<!-- Generator: Adobe Illustrator 25.4.1, SVG Export Plug-In . SVG Version: 6.00 Build 0)  -->
<svg version="1.1" id="PRINT" xmlns="http://www.w3.org/2000/svg" xmlns:xlink="http://www.w3.org/1999/xlink" x="0px" y="0px"
	 width="200.41px" height="66.51px" viewBox="0 0 200.41 66.51" style="enable-background:new 0 0 200.41 66.51;"
	 xml:space="preserve">
<style type="text/css">
	.st0{fill:#DCF4FE;}
	.st1{fill:#5864FF;}
	.st2{fill:#FFFFFF;}
</style>
<path class="st1" d="M9.22,38.57c0-2.44-0.06-7.42-0.06-7.42s-1.84-0.04-3.03-0.12c-2.08-0.14-2.55-3.14-0.86-4.71
	c6.81-6.34,13.62-12.68,20.53-18.9c3.28-2.95,9.31-2.51,12.82,0.14c1.05,0.79,3.44,3.13,3.44,3.13l0.02-1.73
	C42.1,8.42,42.52,8,43.04,7.98l8.56-0.27c0.54-0.02,0.99,0.4,1.01,0.94l0.52,11.79c0,0,3.52,3.33,5.31,5.38
	c1.96,2.23,2.06,5.73-1.83,5.75c-0.68,0-2.16-0.02-2.16-0.02s-0.12,3.09-0.08,3.74C56.19,70.68,9.25,70.18,9.22,38.57z M32.1,55.13
	c13.55-0.3,13.16-14.6,2.73-18.62C21.63,32.96,14.46,55.51,32.1,55.13z M37.67,24.99c-4.92-0.23-6.59,8.41-1.04,8.74
	C41.78,34.26,43.3,25.16,37.67,24.99z M31.02,29.83c0.31-5.45-8.08-6.63-8.14-0.93C22.55,34.32,31.13,35.86,31.02,29.83z
	 M47.69,35.2c-0.25-5.35-6.64-4.37-7.01,0.35C40.76,40.79,47.38,39.6,47.69,35.2z M23.53,35.72c-0.11-4.53-6.46-6.13-6.83-0.86
	C16.81,39.47,23.17,40.91,23.53,35.72z"/>
<g>
	<g>
		<g>
			<path class="st1" d="M74.76,20.85v5.95h-2.91V12.91h2.91v5.53h6.05v-5.53h2.91V26.8h-2.91v-5.95H74.76z"/>
			<path class="st1" d="M96.61,21.46c0,1.73-0.48,3.08-1.44,4.06c-0.96,0.98-2.29,1.47-3.98,1.47c-1.66,0-2.97-0.49-3.91-1.48
				s-1.42-2.34-1.42-4.06c0-1.71,0.47-3.06,1.42-4.04c0.95-0.98,2.27-1.47,3.97-1.47c1.74,0,3.07,0.47,3.99,1.42
				C96.15,18.31,96.61,19.68,96.61,21.46z M93.72,21.46c0-1.27-0.21-2.19-0.62-2.76c-0.41-0.57-1.01-0.86-1.8-0.86
				c-0.84,0-1.47,0.3-1.89,0.9c-0.42,0.6-0.63,1.51-0.63,2.71c0,1.19,0.21,2.09,0.62,2.71c0.41,0.62,1,0.93,1.78,0.93
				c0.85,0,1.49-0.3,1.92-0.91C93.5,23.58,93.72,22.67,93.72,21.46z"/>
			<path class="st1" d="M101.58,21.08v5.72h-2.77v-8.28c0-0.57-0.01-1.04-0.02-1.4s-0.03-0.69-0.05-0.98h2.64
				c0.01,0.08,0.03,0.26,0.05,0.56c0.02,0.29,0.04,0.59,0.05,0.9c0.02,0.31,0.02,0.53,0.02,0.67h0.04c0.34-0.81,0.77-1.41,1.28-1.77
				c0.51-0.37,1.12-0.55,1.83-0.55c0.81,0,1.47,0.19,1.97,0.58c0.5,0.39,0.83,0.97,1,1.74h0.06c0.36-0.83,0.79-1.42,1.3-1.78
				c0.51-0.36,1.15-0.54,1.93-0.54c1.04,0,1.83,0.35,2.37,1.06c0.55,0.71,0.82,1.72,0.82,3.04v6.77h-2.75v-5.98
				c0-0.94-0.13-1.64-0.4-2.11c-0.27-0.47-0.67-0.7-1.21-0.7s-0.99,0.26-1.35,0.78c-0.36,0.52-0.54,1.24-0.54,2.16v5.84h-2.75v-5.98
				c0-0.94-0.13-1.64-0.4-2.11c-0.27-0.47-0.67-0.7-1.21-0.7c-0.56,0-1.01,0.29-1.36,0.86C101.76,19.44,101.58,20.18,101.58,21.08z"
				/>
			<path class="st1" d="M119.04,22c0,1.04,0.19,1.82,0.58,2.35c0.38,0.53,0.93,0.79,1.64,0.79c0.49,0,0.89-0.11,1.2-0.32
				c0.31-0.21,0.53-0.53,0.66-0.95l2.61,0.23c-0.76,1.93-2.29,2.9-4.6,2.9c-1.6,0-2.83-0.47-3.7-1.42
				c-0.86-0.95-1.29-2.33-1.29-4.15c0-1.76,0.44-3.11,1.31-4.06c0.87-0.95,2.11-1.42,3.71-1.42c1.53,0,2.7,0.51,3.51,1.52
				c0.81,1.01,1.21,2.5,1.21,4.46V22H119.04z M123.2,20.26c-0.05-0.86-0.26-1.51-0.62-1.94c-0.36-0.43-0.85-0.65-1.46-0.65
				c-0.65,0-1.15,0.23-1.5,0.68s-0.54,1.09-0.56,1.9H123.2z"/>
		</g>
	</g>
	<g>
		<g>
			<path class="st1" d="M89.6,39.47c0,1.4-0.32,2.64-0.96,3.71c-0.64,1.08-1.54,1.92-2.72,2.53c-1.17,0.61-2.57,0.91-4.2,0.91h-5.36
				v7.6h-4.52V32.64h9.7c2.58,0,4.57,0.6,5.97,1.78C88.91,35.61,89.6,37.3,89.6,39.47z M85.05,39.55c0-2.27-1.34-3.4-4.01-3.4h-4.67
				v7h4.79c1.25,0,2.21-0.31,2.88-0.93C84.72,41.6,85.05,40.71,85.05,39.55z"/>
			<path class="st1" d="M96.42,46.76c0,1.61,0.3,2.83,0.9,3.65c0.6,0.82,1.45,1.23,2.55,1.23c0.75,0,1.38-0.17,1.86-0.5
				c0.49-0.33,0.82-0.82,1.02-1.48l4.06,0.35c-1.17,3-3.56,4.5-7.15,4.5c-2.49,0-4.41-0.74-5.74-2.21
				c-1.34-1.48-2.01-3.63-2.01-6.46c0-2.74,0.68-4.84,2.04-6.31s3.28-2.21,5.78-2.21c2.38,0,4.2,0.79,5.45,2.37
				c1.26,1.58,1.88,3.89,1.88,6.93v0.12H96.42z M102.88,44.07c-0.08-1.34-0.4-2.34-0.96-3.01c-0.56-0.67-1.32-1-2.27-1
				c-1.01,0-1.79,0.35-2.34,1.06c-0.55,0.7-0.83,1.69-0.87,2.96H102.88z"/>
			<path class="st1" d="M118.18,53.97c-1.04,0.35-2.25,0.52-3.63,0.52c-1.27,0-2.24-0.34-2.93-1.03c-0.68-0.69-1.03-1.73-1.03-3.13
				v-9.77h-2.1v-2.91h2.31l1.35-3.89h2.7v3.89H118v2.91h-3.14v8.61c0,0.81,0.15,1.4,0.46,1.78s0.78,0.57,1.42,0.57
				c0.31,0,0.79-0.07,1.44-0.21V53.97z"/>
			<path class="st1" d="M139.46,50.97c2.74,0,4.63-1.37,5.68-4.1l3.94,1.49c-0.85,2.08-2.09,3.63-3.73,4.65
				c-1.64,1.02-3.6,1.52-5.89,1.52c-2.31,0-4.27-0.44-5.9-1.32c-1.62-0.88-2.86-2.16-3.71-3.84c-0.85-1.67-1.28-3.69-1.28-6.03
				c0-2.37,0.41-4.37,1.23-6c0.82-1.63,2.02-2.88,3.61-3.73c1.59-0.85,3.54-1.28,5.85-1.28c2.53,0,4.59,0.51,6.19,1.52
				c1.59,1.02,2.71,2.51,3.35,4.48l-3.98,1.09c-0.34-1.08-1-1.94-1.98-2.58c-0.99-0.64-2.15-0.96-3.48-0.96
				c-2.04,0-3.59,0.63-4.65,1.9c-1.06,1.27-1.59,3.12-1.59,5.56c0,1.65,0.24,3.05,0.73,4.18c0.48,1.13,1.2,1.99,2.14,2.58
				C136.93,50.68,138.09,50.97,139.46,50.97z"/>
			<path class="st1" d="M155.95,54.53c-1.6,0-2.85-0.44-3.75-1.31c-0.9-0.87-1.35-2.1-1.35-3.68c0-1.72,0.56-3.02,1.68-3.91
				c1.12-0.89,2.74-1.35,4.86-1.39l3.57-0.06v-0.84c0-1.08-0.19-1.89-0.57-2.41c-0.38-0.53-1-0.79-1.85-0.79
				c-0.8,0-1.38,0.18-1.75,0.54c-0.37,0.36-0.6,0.96-0.7,1.8l-4.49-0.21c0.56-3.28,2.94-4.92,7.12-4.92c2.09,0,3.71,0.52,4.84,1.55
				c1.13,1.03,1.7,2.5,1.7,4.4v6.03c0,0.93,0.11,1.57,0.31,1.92c0.21,0.35,0.56,0.53,1.05,0.53c0.33,0,0.64-0.03,0.95-0.09v2.33
				c-0.53,0.13-0.99,0.23-1.36,0.3c-0.38,0.07-0.84,0.1-1.39,0.1c-1.08,0-1.88-0.27-2.4-0.8c-0.52-0.53-0.82-1.31-0.93-2.34h-0.09
				c-0.6,1.08-1.36,1.9-2.27,2.44C158.23,54.25,157.17,54.53,155.95,54.53z M160.96,46.55l-2.21,0.03
				c-1.01,0.05-1.72,0.16-2.13,0.32c-0.42,0.18-0.74,0.46-0.96,0.83c-0.22,0.37-0.33,0.86-0.33,1.47c0,0.79,0.18,1.37,0.54,1.75
				c0.36,0.38,0.84,0.57,1.45,0.57c0.67,0,1.29-0.18,1.85-0.55c0.55-0.37,0.99-0.88,1.3-1.52c0.32-0.65,0.47-1.33,0.47-2.06V46.55z"
				/>
			<path class="st1" d="M173.87,46.09v8.13h-4.3V41.54c0-0.91-0.01-1.67-0.04-2.27c-0.03-0.61-0.05-1.15-0.08-1.62h4.1
				c0.02,0.09,0.04,0.3,0.06,0.61c0.02,0.32,0.04,0.67,0.06,1.06c0.02,0.39,0.04,0.76,0.05,1.11c0.02,0.35,0.02,0.6,0.02,0.75h0.06
				c0.41-1.14,0.78-1.97,1.12-2.47c0.33-0.48,0.71-0.83,1.16-1.06c0.45-0.22,1.01-0.34,1.68-0.34c0.55,0,1,0.08,1.33,0.23v3.6
				c-0.68-0.15-1.3-0.23-1.84-0.23c-1.07,0-1.91,0.43-2.5,1.3C174.17,43.1,173.87,44.38,173.87,46.09z"/>
			<path class="st1" d="M185.33,46.76c0,1.61,0.3,2.83,0.9,3.65c0.6,0.82,1.45,1.23,2.55,1.23c0.76,0,1.38-0.17,1.86-0.5
				c0.48-0.33,0.82-0.82,1.02-1.48l4.06,0.35c-1.17,3-3.56,4.5-7.15,4.5c-2.49,0-4.41-0.74-5.74-2.21
				c-1.34-1.48-2.01-3.63-2.01-6.46c0-2.74,0.68-4.84,2.04-6.31c1.36-1.47,3.28-2.21,5.77-2.21c2.38,0,4.2,0.79,5.45,2.37
				s1.88,3.89,1.88,6.93v0.12H185.33z M191.79,44.07c-0.08-1.34-0.4-2.34-0.96-3.01c-0.56-0.67-1.32-1-2.27-1
				c-1.01,0-1.79,0.35-2.34,1.06c-0.55,0.7-0.83,1.69-0.87,2.96H191.79z"/>
		</g>
	</g>
</g>
</svg>
